<svg xmlns="http://www.w3.org/2000/svg" width="801" height="300" viewBox="0 0 801 300">
  <defs>
    <linearGradient id="naranja" x1="0.3" y1="0" x2="0.7" y2="1">
      <stop offset="0" stop-color="#FFA23A"/><stop offset="0.45" stop-color="#FF6A13"/><stop offset="1" stop-color="#F23D0C"/>
    </linearGradient>
  </defs>
  <g id="icono"><rect width="300" height="300" rx="72" fill="#0B0B0C"/></g>
  <g id="ch"><path fill="#FFFFFF" d="M104.768 194.564Q92.27199999999999 194.564 83.29599999999999 190.77999999999997Q74.32 186.99599999999998 68.68799999999999 180.308Q63.056 173.62 60.416 164.996Q57.775999999999996 156.372 57.775999999999996 146.692Q57.775999999999996 136.836 60.416 127.94800000000001Q63.056 119.06 68.6 111.932Q74.14399999999999 104.804 83.03199999999998 100.756Q91.91999999999999 96.708 104.416 96.708Q119.19999999999999 96.708 128.26399999999998 102.252Q137.32799999999997 107.79599999999999 140.93599999999998 116.596Q144.54399999999998 125.396 142.95999999999998 135.60399999999998L118.32 137.54Q118.672 131.204 117.0 127.06800000000001Q115.328 122.932 111.984 120.908Q108.63999999999999 118.884 103.88799999999999 118.884Q99.66399999999999 118.884 96.40799999999999 120.46799999999999Q93.15199999999999 122.05199999999999 90.952 125.30799999999999Q88.752 128.564 87.608 133.492Q86.464 138.42 86.464 145.284Q86.464 154.084 88.488 160.42000000000002Q90.512 166.756 94.648 170.1Q98.78399999999999 173.444 105.11999999999999 173.444Q111.63199999999999 173.444 114.976 170.276Q118.32 167.108 119.37599999999999 162.268Q120.43199999999999 157.428 119.728 152.676L145.952 153.908Q147.00799999999998 161.652 145.248 168.956Q143.488 176.26 138.47199999999998 182.06799999999998Q133.456 187.876 125.09599999999999 191.22Q116.73599999999999 194.564 104.768 194.564ZM155.104 192.1V142.99599999999998V68.9H183.61599999999999V92.132Q183.61599999999999 95.828 183.176 101.9Q182.736 107.972 181.944 114.836Q181.152 121.7 180.35999999999999 127.94800000000001Q179.56799999999998 134.196 179.04 138.42H180.624Q182.208 123.812 186.07999999999998 114.572Q189.952 105.332 196.64 101.02Q203.328 96.708 212.832 96.708Q227.792 96.708 235.00799999999998 107.356Q242.224 118.004 242.224 139.476V192.1H213.712V140.708Q213.712 130.852 211.072 126.27600000000001Q208.432 121.7 202.448 121.7Q197.168 121.7 192.94400000000002 125.66Q188.72 129.62 186.168 138.244Q183.61599999999999 146.868 183.61599999999999 160.596V192.1Z"/></g>
  <g id="apostrofo"><path fill="url(#naranja)" d="M124.4712 125.044Q127.6392 116.068 128.9592 108.76400000000001Q130.2792 101.46000000000001 130.5432 94.42000000000002Q130.8072 87.38000000000001 130.8072 79.46000000000001H156.5032Q156.5032 90.9 155.0072 99.34800000000001Q153.5112 107.796 151.0472 113.956Q148.5832 120.116 145.9432 125.044Z"/></g>
  <g id="linea"><rect x="57.8" y="213.1" width="184.4" height="18.0" rx="9.0" fill="url(#naranja)"/></g>
  <g id="chollos"><path fill="#0B0B0C" d="M391.35 128.25Q380.7 128.25 373.04999999999995 125.025Q365.4 121.80000000000001 360.6 116.10000000000001Q355.8 110.4 353.55 103.05000000000001Q351.3 95.7 351.3 87.45000000000002Q351.3 79.05000000000001 353.55 71.47500000000001Q355.8 63.900000000000006 360.525 57.82500000000001Q365.25 51.750000000000014 372.825 48.30000000000001Q380.4 44.85000000000001 391.05 44.85000000000001Q403.65 44.85000000000001 411.375 49.57500000000001Q419.1 54.30000000000001 422.175 61.80000000000001Q425.25 69.30000000000001 423.9 78.0L402.9 79.65Q403.2 74.25 401.775 70.72500000000001Q400.35 67.20000000000002 397.5 65.47500000000001Q394.65 63.75000000000001 390.6 63.75000000000001Q387.0 63.75000000000001 384.225 65.10000000000001Q381.45 66.45000000000002 379.575 69.22500000000001Q377.7 72.0 376.725 76.2Q375.75 80.4 375.75 86.25Q375.75 93.75 377.475 99.15Q379.2 104.55000000000001 382.725 107.4Q386.25 110.25 391.65 110.25Q397.2 110.25 400.04999999999995 107.55000000000001Q402.9 104.85000000000001 403.79999999999995 100.72500000000001Q404.7 96.60000000000001 404.1 92.55000000000001L426.45 93.60000000000001Q427.35 100.2 425.85 106.42500000000001Q424.35 112.65 420.07500000000005 117.60000000000001Q415.8 122.55000000000001 408.675 125.4Q401.55 128.25 391.35 128.25ZM428.25 126.15V84.30000000000001V21.150000000000006H452.55V40.95Q452.55 44.10000000000001 452.175 49.275000000000006Q451.8 54.45 451.125 60.300000000000004Q450.45000000000005 66.15 449.77500000000003 71.47500000000001Q449.1 76.80000000000001 448.65000000000003 80.4H450.0Q451.35 67.95000000000002 454.65000000000003 60.07500000000001Q457.95000000000005 52.2 463.65000000000003 48.525000000000006Q469.35 44.85000000000001 477.45000000000005 44.85000000000001Q490.20000000000005 44.85000000000001 496.35 53.92500000000001Q502.5 63.00000000000001 502.5 81.30000000000001V126.15H478.20000000000005V82.35000000000001Q478.20000000000005 73.95000000000002 475.95000000000005 70.05000000000001Q473.70000000000005 66.15 468.6 66.15Q464.1 66.15 460.5 69.525Q456.90000000000003 72.9 454.725 80.25Q452.55 87.60000000000001 452.55 99.30000000000001V126.15ZM543.45 128.25Q532.0500000000001 128.25 523.2 123.67500000000001Q514.35 119.10000000000001 509.40000000000003 109.875Q504.45000000000005 100.65 504.45000000000005 86.70000000000002Q504.45000000000005 72.15 509.62500000000006 62.925000000000004Q514.8000000000001 53.7 523.7250000000001 49.275000000000006Q532.6500000000001 44.85000000000001 543.9000000000001 44.85000000000001Q555.6 44.85000000000001 564.375 49.42500000000001Q573.1500000000001 54.000000000000014 578.0250000000001 63.225000000000016Q582.9000000000001 72.45000000000002 582.9000000000001 86.55000000000001Q582.9000000000001 101.10000000000001 577.7250000000001 110.32500000000002Q572.5500000000001 119.55000000000001 563.625 123.9Q554.7 128.25 543.45 128.25ZM544.0500000000001 110.4Q548.7 110.4 551.85 107.775Q555.0 105.15 556.6500000000001 100.05000000000001Q558.3000000000001 94.95 558.3000000000001 87.9Q558.3000000000001 80.10000000000001 556.5 74.775Q554.7 69.45000000000002 551.325 66.60000000000001Q547.95 63.75000000000001 543.1500000000001 63.75000000000001Q538.6500000000001 63.75000000000001 535.5 66.375Q532.35 69.0 530.7 74.10000000000001Q529.0500000000001 79.20000000000002 529.0500000000001 86.4Q529.0500000000001 97.80000000000001 533.0250000000001 104.10000000000001Q537.0 110.4 544.0500000000001 110.4ZM585.6 126.15V21.150000000000006H609.9000000000001V126.15ZM614.7 126.15V21.150000000000006H639.0000000000001V126.15ZM680.7 128.25Q669.3000000000001 128.25 660.45 123.67500000000001Q651.6000000000001 119.10000000000001 646.6500000000001 109.875Q641.7 100.65 641.7 86.70000000000002Q641.7 72.15 646.875 62.925000000000004Q652.0500000000001 53.7 660.9750000000001 49.275000000000006Q669.9000000000001 44.85000000000001 681.1500000000001 44.85000000000001Q692.8500000000001 44.85000000000001 701.6250000000001 49.42500000000001Q710.4000000000001 54.000000000000014 715.2750000000001 63.225000000000016Q720.1500000000001 72.45000000000002 720.1500000000001 86.55000000000001Q720.1500000000001 101.10000000000001 714.9750000000001 110.32500000000002Q709.8000000000001 119.55000000000001 700.875 123.9Q691.95 128.25 680.7 128.25ZM681.3000000000001 110.4Q685.95 110.4 689.1000000000001 107.775Q692.2500000000001 105.15 693.9000000000001 100.05000000000001Q695.5500000000001 94.95 695.5500000000001 87.9Q695.5500000000001 80.10000000000001 693.75 74.775Q691.95 69.45000000000002 688.575 66.60000000000001Q685.2 63.75000000000001 680.4000000000001 63.75000000000001Q675.9000000000001 63.75000000000001 672.7500000000001 66.375Q669.6000000000001 69.0 667.95 74.10000000000001Q666.3000000000001 79.20000000000002 666.3000000000001 86.4Q666.3000000000001 97.80000000000001 670.2750000000001 104.10000000000001Q674.2500000000001 110.4 681.3000000000001 110.4ZM757.5 128.25Q749.5500000000001 128.25 742.7250000000001 126.67500000000001Q735.9000000000001 125.10000000000001 730.875 121.65Q725.85 118.2 723.225 112.42500000000001Q720.6 106.65 721.0500000000001 98.4L742.2 96.60000000000001Q742.5 101.55000000000001 744.45 104.775Q746.4000000000001 108.0 749.8500000000001 109.5Q753.3000000000001 111.0 758.25 111.0Q762.9000000000001 111.0 766.2750000000001 109.42500000000001Q769.6500000000001 107.85000000000001 769.6500000000001 104.10000000000001Q769.6500000000001 102.15 768.45 100.875Q767.25 99.60000000000001 764.0250000000001 98.47500000000001Q760.8000000000001 97.35000000000001 754.6500000000001 95.85000000000001Q747.0 93.9 740.85 91.95Q734.7 90.0 730.35 87.30000000000001Q726.0 84.60000000000001 723.75 80.625Q721.5 76.65 721.5 70.80000000000001Q721.5 62.55000000000001 725.925 56.77500000000001Q730.35 51.000000000000014 738.1500000000001 47.92500000000001Q745.95 44.85000000000001 756.1500000000001 44.85000000000001Q765.3000000000001 44.85000000000001 773.25 47.70000000000001Q781.2 50.55000000000001 785.7750000000001 57.000000000000014Q790.35 63.45000000000001 789.1500000000001 74.10000000000001L768.45 76.05000000000001Q768.9000000000001 71.70000000000002 767.25 68.62500000000001Q765.6 65.55000000000001 762.45 63.97500000000001Q759.3000000000001 62.400000000000006 754.8000000000001 62.400000000000006Q749.7 62.400000000000006 746.9250000000001 64.275Q744.1500000000001 66.15 744.1500000000001 69.0Q744.1500000000001 71.25 745.875 72.825Q747.6 74.4 751.2750000000001 75.525Q754.95 76.65 760.8000000000001 78.0Q765.9000000000001 79.05000000000001 771.45 80.70000000000002Q777.0 82.35000000000001 781.8 85.125Q786.6 87.9 789.6 92.4Q792.6 96.9 792.6 103.80000000000001Q792.6 111.15 788.55 116.7Q784.5 122.25 776.7 125.25Q768.9000000000001 128.25 757.5 128.25Z"/></g>
  <g id="d"><path fill="#0B0B0C" d="M381.45 257.25Q372.9 257.25 366.075 252.60000000000002Q359.25 247.95000000000002 355.275 238.5Q351.3 229.05 351.3 214.65Q351.3 201.0 354.9 191.925Q358.5 182.85000000000002 365.1 178.35000000000002Q371.7 173.85000000000002 380.55 173.85000000000002Q387.45 173.85000000000002 392.775 176.70000000000002Q398.1 179.55 401.55 185.70000000000002Q405.0 191.85000000000002 406.35 201.75H407.7Q406.95 196.65 406.2 191.7Q405.45 186.75 405.075 182.1Q404.7 177.45 404.7 173.4V150.15H429.0V227.25V255.15H407.85V230.70000000000002H406.8Q405.15 239.4 401.775 245.325Q398.4 251.25 393.375 254.25Q388.35 257.25 381.45 257.25ZM390.0 237.9Q392.85 237.9 395.55 236.625Q398.25 235.35 400.35 232.65Q402.45 229.95000000000002 403.725 225.90000000000003Q405.0 221.85000000000002 405.0 216.3V215.25Q405.0 210.75 404.1 207.22500000000002Q403.2 203.70000000000002 401.7 201.22500000000002Q400.2 198.75 398.25 197.175Q396.3 195.60000000000002 394.125 194.85000000000002Q391.95 194.10000000000002 389.85 194.10000000000002Q385.2 194.10000000000002 382.04999999999995 197.25Q378.9 200.4 377.4 205.425Q375.9 210.45000000000002 375.9 216.3Q375.9 222.15 377.54999999999995 227.10000000000002Q379.2 232.05 382.35 234.97500000000002Q385.5 237.9 390.0 237.9Z"/></g>
  <g id="apostrofo-nombre"><path fill="url(#naranja)" d="M428.7 189.0Q431.4 181.35 432.525 175.125Q433.65 168.9 433.875 162.9Q434.09999999999997 156.9 434.09999999999997 150.15H456.0Q456.0 159.9 454.725 167.10000000000002Q453.45 174.3 451.35 179.55Q449.25 184.8 447.0 189.0Z"/></g>
  <g id="hoy"><path fill="#0B0B0C" d="M456.74999999999994 255.15V213.3V150.15H481.04999999999995V169.95Q481.04999999999995 173.10000000000002 480.67499999999995 178.275Q480.29999999999995 183.45 479.625 189.3Q478.95 195.15 478.275 200.47500000000002Q477.59999999999997 205.8 477.15 209.4H478.49999999999994Q479.84999999999997 196.95000000000002 483.15 189.075Q486.45 181.2 492.15 177.525Q497.84999999999997 173.85000000000002 505.95 173.85000000000002Q518.6999999999999 173.85000000000002 524.8499999999999 182.925Q531.0 192.0 531.0 210.3V255.15H506.7V211.35000000000002Q506.7 202.95000000000002 504.45 199.05Q502.2 195.15 497.09999999999997 195.15Q492.59999999999997 195.15 489.0 198.525Q485.4 201.9 483.22499999999997 209.25Q481.04999999999995 216.60000000000002 481.04999999999995 228.3V255.15ZM571.9499999999999 257.25Q560.55 257.25 551.7 252.675Q542.85 248.1 537.9 238.875Q532.9499999999999 229.65 532.9499999999999 215.70000000000002Q532.9499999999999 201.15 538.125 191.925Q543.3 182.7 552.2249999999999 178.275Q561.15 173.85000000000002 572.4 173.85000000000002Q584.1 173.85000000000002 592.875 178.425Q601.65 183.0 606.525 192.22500000000002Q611.4 201.45000000000002 611.4 215.55Q611.4 230.1 606.2249999999999 239.325Q601.05 248.55 592.125 252.9Q583.1999999999999 257.25 571.9499999999999 257.25ZM572.55 239.4Q577.1999999999999 239.4 580.3499999999999 236.775Q583.5 234.15 585.15 229.05Q586.8 223.95000000000002 586.8 216.9Q586.8 209.10000000000002 585.0 203.77500000000003Q583.1999999999999 198.45000000000002 579.8249999999999 195.60000000000002Q576.4499999999999 192.75 571.65 192.75Q567.15 192.75 564.0 195.375Q560.85 198.0 559.2 203.10000000000002Q557.55 208.20000000000002 557.55 215.4Q557.55 226.8 561.525 233.10000000000002Q565.5 239.4 572.55 239.4ZM642.4499999999999 278.55Q637.9499999999999 278.55 632.55 277.8Q627.15 277.05 621.75 275.4Q616.3499999999999 273.75 611.6999999999999 271.2L617.2499999999999 246.75Q622.65 251.85 629.3249999999999 253.95Q635.9999999999999 256.05 641.2499999999999 256.05Q648.5999999999999 256.05 653.625 253.125Q658.65 250.20000000000002 661.1999999999999 244.57500000000002Q663.7499999999999 238.95000000000002 663.7499999999999 230.85V217.05H662.4Q662.0999999999999 227.55 659.0249999999999 234.22500000000002Q655.9499999999999 240.9 650.6999999999999 244.05Q645.4499999999999 247.20000000000002 638.55 247.20000000000002Q629.9999999999999 247.20000000000002 624.3749999999999 242.85000000000002Q618.7499999999999 238.5 615.8999999999999 229.8Q613.05 221.10000000000002 613.05 208.05V175.95H637.1999999999999V201.75Q637.1999999999999 214.5 639.8999999999999 220.35000000000002Q642.5999999999999 226.20000000000002 648.4499999999999 226.20000000000002Q651.4499999999999 226.20000000000002 653.7749999999999 224.625Q656.0999999999999 223.05 657.5999999999999 219.82500000000002Q659.0999999999999 216.60000000000002 659.8499999999999 211.72500000000002Q660.5999999999999 206.85000000000002 660.5999999999999 200.4V175.95H684.7499999999999V231.75Q684.7499999999999 239.85 683.0999999999999 246.975Q681.4499999999999 254.1 678.1499999999999 259.875Q674.8499999999999 265.65 669.8249999999999 269.85Q664.8 274.05 657.9749999999999 276.3Q651.15 278.55 642.4499999999999 278.55Z"/></g>
  <g id="punto-final"><circle cx="712.0" cy="240.2" r="15.0" fill="url(#naranja)"/></g>
</svg>
